<?xml version="1.0" encoding="UTF-8" standalone="no"?>
<!DOCTYPE svg PUBLIC "-//W3C//DTD SVG 20010904//EN"
              "http://www.w3.org/TR/2001/REC-SVG-20010904/DTD/svg10.dtd">

<svg xmlns="http://www.w3.org/2000/svg"
     width="6.74052in" height="6.27171in"
     viewBox="0 0 647 602">
  <path id="Auswahl"
        fill="none" stroke="black" stroke-width="1"
        d="M 334.00,46.21
           C 357.17,46.04 392.42,54.77 414.00,63.40
             441.05,74.22 465.11,89.02 487.00,108.28
             566.50,178.25 594.32,290.84 558.31,390.00
             548.20,417.83 532.80,443.30 513.92,466.00
             496.62,486.81 468.18,512.26 444.00,524.74
             427.31,533.36 411.06,540.90 393.00,546.28
             363.82,554.97 333.29,557.35 303.00,557.00
             283.04,556.76 248.89,548.95 230.00,542.05
             195.05,529.28 166.00,511.80 139.00,485.96
             126.61,474.11 114.84,459.26 105.33,445.00
             55.80,370.69 48.42,277.82 83.43,196.00
             109.39,135.33 164.53,84.61 226.00,61.42
             246.59,53.66 268.38,49.97 290.00,46.21
             290.00,46.21 334.00,46.21 334.00,46.21 Z
           M 307.00,115.42
           C 307.00,115.42 332.00,131.31 332.00,131.31
             335.64,133.61 341.56,137.28 346.00,136.73
             351.15,136.09 357.16,129.12 359.90,125.00
             362.64,120.87 364.66,115.88 365.54,111.00
             367.27,101.40 365.00,82.25 357.79,75.22
             352.47,70.03 330.76,69.01 323.00,69.00
             296.44,68.96 279.65,71.26 254.00,78.58
             247.55,80.42 234.61,83.61 230.00,88.00
             254.30,89.12 286.55,102.63 307.00,115.42 Z
           M 450.00,110.72
           C 436.28,101.13 421.45,93.36 406.00,86.99
             398.82,84.03 389.63,80.18 382.00,79.00
             383.35,87.74 387.57,94.92 387.96,105.00
             388.22,111.72 386.62,118.77 384.19,125.00
             380.95,133.28 374.65,141.52 369.67,149.00
             368.05,151.43 364.38,156.04 364.87,159.00
             365.29,161.50 368.28,164.24 370.00,166.00
             374.78,170.87 379.57,175.84 385.00,179.98
             387.49,181.88 389.70,183.76 393.00,182.78
             396.98,181.60 413.60,167.49 418.00,164.00
             430.99,153.71 455.43,136.02 470.00,129.00
             466.36,121.31 456.89,115.53 450.00,110.72 Z
           M 116.00,223.25
           C 126.34,218.11 137.99,213.86 149.00,210.34
             187.91,197.91 228.49,192.50 268.00,182.63
             279.93,179.64 299.36,174.96 310.00,169.63
             314.72,167.27 321.17,163.44 322.57,158.00
             325.16,147.87 308.24,138.89 301.00,134.60
             285.25,125.28 264.62,117.35 247.00,112.29
             237.92,109.68 223.29,106.11 214.00,106.00
             214.00,106.00 199.00,106.00 199.00,106.00
             190.14,106.12 185.81,109.97 179.00,115.13
             168.41,123.17 158.72,132.16 149.83,142.00
             121.95,172.87 109.07,194.76 96.00,234.00
             96.00,234.00 116.00,223.25 116.00,223.25 Z
           M 505.57,165.00
           C 502.19,160.26 493.05,146.18 487.00,146.42
             484.15,146.53 479.40,149.75 477.00,151.35
             477.00,151.35 456.00,166.15 456.00,166.15
             456.00,166.15 421.00,192.88 421.00,192.88
             418.14,195.06 410.36,200.28 410.32,204.00
             410.28,207.60 420.56,218.74 423.20,222.00
             425.32,224.63 430.37,231.62 433.09,232.94
             437.13,234.90 443.19,231.00 447.00,229.45
             456.95,225.40 467.39,221.87 478.00,220.08
             491.84,217.75 507.07,218.48 520.00,224.31
             532.63,230.00 532.36,231.97 540.00,236.00
             535.22,215.05 518.12,182.55 505.57,165.00 Z
           M 354.00,183.00
           C 351.71,180.75 348.39,177.01 345.00,176.82
             342.23,176.66 338.30,179.25 336.00,180.68
             336.00,180.68 321.00,189.74 321.00,189.74
             305.56,197.73 284.94,203.89 268.00,208.13
             228.94,217.90 188.29,222.62 150.00,235.33
             133.84,240.70 111.52,249.56 99.00,261.09
             87.32,271.85 85.18,280.61 85.00,296.00
             85.00,296.00 85.00,300.00 85.00,300.00
             85.00,300.00 86.04,310.00 86.04,310.00
             86.04,310.00 86.04,320.00 86.04,320.00
             88.95,349.21 97.64,378.77 110.75,405.00
             116.11,415.71 118.42,420.82 125.34,431.00
             128.61,435.80 130.64,439.41 136.00,442.00
             146.31,425.74 173.17,396.30 186.84,381.00
             217.46,346.71 249.36,313.26 283.00,281.91
             283.00,281.91 344.00,224.83 344.00,224.83
             351.33,218.23 363.13,207.27 371.00,202.00
             366.89,194.96 359.84,188.76 354.00,183.00 Z
           M 374.00,231.88
           C 374.00,231.88 337.00,262.58 337.00,262.58
             295.69,297.94 236.29,358.62 200.58,400.00
             200.58,400.00 163.42,443.00 163.42,443.00
             160.53,446.39 151.40,455.73 151.59,460.00
             151.73,463.24 155.82,466.81 158.00,469.00
             164.43,475.45 173.60,483.05 181.00,488.42
             208.48,508.37 234.90,520.11 268.00,527.42
             274.89,528.95 288.30,531.83 295.00,531.99
             306.56,532.25 311.08,527.04 317.57,518.00
             326.29,505.86 333.56,489.19 338.33,475.00
             350.36,439.26 355.36,401.72 363.42,365.00
             363.42,365.00 377.67,313.00 377.67,313.00
             381.74,300.91 390.20,282.33 397.44,272.00
             397.44,272.00 413.93,251.00 413.93,251.00
             414.99,247.50 412.20,244.54 410.19,242.00
             406.30,237.07 396.04,223.09 390.91,221.10
             385.25,222.20 378.66,228.33 374.00,231.88 Z
           M 549.09,314.00
           C 549.09,314.00 550.00,302.00 550.00,302.00
             550.01,293.58 549.76,277.51 546.47,270.00
             538.83,252.56 505.98,241.21 488.00,241.00
             477.94,240.89 471.41,240.80 462.00,245.33
             458.49,247.01 454.24,249.82 453.61,254.00
             452.98,258.27 457.81,265.42 460.05,269.00
             460.05,269.00 480.57,302.00 480.57,302.00
             493.81,325.08 506.09,351.13 512.53,377.00
             514.64,385.51 516.00,394.28 516.83,403.00
             517.30,407.95 516.14,413.32 518.00,418.00
             536.81,384.96 546.49,351.77 549.09,314.00 Z
           M 346.00,531.28
           C 387.46,525.82 423.14,510.79 457.00,486.42
             465.54,480.28 486.99,461.80 491.56,453.00
             494.21,447.91 495.57,434.99 495.91,429.00
             496.13,425.14 495.50,423.53 495.00,420.00
             495.00,420.00 495.00,411.00 495.00,411.00
             495.00,411.00 491.80,392.00 491.80,392.00
             485.57,360.65 473.60,330.60 457.58,303.00
             453.24,295.54 445.06,282.85 438.96,277.10
             435.22,273.57 430.24,270.41 425.00,272.60
             418.07,275.51 412.57,284.58 409.26,291.00
             400.38,308.21 396.51,324.41 391.87,343.00
             378.45,396.74 373.20,453.18 349.69,504.00
             344.82,514.52 338.07,523.30 332.00,533.00
             332.00,533.00 346.00,531.28 346.00,531.28 Z" />
</svg>
