<?xml version="1.0" encoding="UTF-8" standalone="no"?>
<!DOCTYPE svg PUBLIC "-//W3C//DTD SVG 20010904//EN"
              "http://www.w3.org/TR/2001/REC-SVG-20010904/DTD/svg10.dtd">

<svg xmlns="http://www.w3.org/2000/svg"
     width="4.60359in" height="4.60359in"
     viewBox="0 0 442 442">
  <path id="Baseball"
        fill="none" stroke="black" stroke-width="8"
        d="M 228.00,13.21
           C 250.59,13.04 277.09,19.41 298.00,27.80
             318.30,35.94 338.40,48.22 355.00,62.43
             427.41,124.44 447.70,228.10 405.25,313.00
             395.47,332.54 384.50,348.50 369.00,364.00
             352.63,380.37 338.72,392.05 318.00,402.74
             280.28,422.20 252.05,427.49 210.00,427.00
             193.12,426.80 170.05,422.02 154.00,416.67
             132.46,409.49 109.86,397.33 92.00,383.34
             18.13,325.47 -7.37,223.99 29.43,138.00
             51.81,85.69 96.40,43.78 150.00,24.69
             161.38,20.64 175.04,16.98 187.00,15.28
             187.00,15.28 204.00,13.21 204.00,13.21
             204.00,13.21 228.00,13.21 228.00,13.21 Z
           M 343.00,72.92
           C 274.20,15.71 176.71,13.27 105.00,66.63
             88.59,78.84 66.00,101.55 57.00,120.00
             97.67,140.12 142.78,151.93 188.00,155.09
             188.00,155.09 200.00,156.00 200.00,156.00
             200.00,156.00 240.00,156.00 240.00,156.00
             252.53,155.85 281.22,151.60 294.00,149.00
             311.12,145.51 331.61,139.94 348.00,133.95
             348.00,133.95 383.00,120.00 383.00,120.00
             375.35,104.33 356.37,84.04 343.00,72.92 Z
           M 399.95,286.00
           C 413.51,249.00 415.90,208.00 405.00,170.00
             401.87,159.07 398.27,148.22 393.24,138.00
             392.01,135.49 388.90,128.30 386.61,127.13
             383.91,125.74 378.66,128.86 376.00,130.00
             376.00,130.00 347.00,141.33 347.00,141.33
             315.16,152.05 282.57,159.74 249.00,162.09
             249.00,162.09 239.00,163.00 239.00,163.00
             239.00,163.00 201.00,163.00 201.00,163.00
             179.59,162.97 140.86,156.38 120.00,150.58
             120.00,150.58 77.00,136.40 77.00,136.40
             77.00,136.40 53.00,126.00 53.00,126.00
             28.95,168.26 21.76,219.95 34.15,267.00
             40.63,291.59 46.45,301.17 58.00,323.00
             58.00,323.00 87.00,315.37 87.00,315.37
             87.00,315.37 141.00,304.42 141.00,304.42
             173.07,299.44 205.57,297.62 238.00,298.00
             238.00,298.00 256.00,299.00 256.00,299.00
             256.00,299.00 266.00,299.91 266.00,299.91
             291.70,301.79 318.97,306.12 344.00,312.37
             344.00,312.37 382.00,323.00 382.00,323.00
             389.24,309.31 394.45,301.00 399.95,286.00 Z
           M 63.00,329.00
           C 72.03,346.54 97.48,368.65 114.00,379.67
             179.44,423.29 263.02,422.12 328.00,378.33
             343.69,367.76 368.40,345.70 377.00,329.00
             274.98,295.01 165.37,299.10 63.00,329.00 Z" />
</svg>
