<?xml version="1.0"?>
<svg xmlns="http://www.w3.org/2000/svg" viewBox="0 0 16 16">
    <path style="line-height:normal;text-indent:0;text-align:start;text-decoration-line:none;text-decoration-style:solid;text-decoration-color:#000;text-transform:none;block-progression:tb;isolation:auto;mix-blend-mode:normal" d="M 6.5 1 A 0.50005 0.50005 0 1 0 6.5 2 L 7 2 L 7 3.0253906 C 4.2022445 3.279656 2 5.6373546 2 8.5 C 2 11.531644 4.4683562 14 7.5 14 C 10.531644 14 13 11.531644 13 8.5 C 13 7.1637575 12.518601 5.9386242 11.722656 4.984375 L 12.853516 3.8535156 A 0.50005 0.50005 0 0 0 12.490234 2.9960938 A 0.50005 0.50005 0 0 0 12.146484 3.1464844 L 11.015625 4.2773438 C 10.182062 3.5820646 9.1407853 3.1290674 8 3.0253906 L 8 2 L 8.5 2 A 0.50005 0.50005 0 1 0 8.5 1 L 8 1 L 7 1 L 6.5 1 z M 7.5 4 C 9.9912037 4 12 6.0087963 12 8.5 C 12 10.991204 9.9912037 13 7.5 13 C 5.0087963 13 3 10.991204 3 8.5 C 3 6.0087963 5.0087963 4 7.5 4 z M 7.4921875 4.9921875 A 0.50005 0.50005 0 0 0 7 5.5 L 7 8.5 A 0.50005 0.50005 0 1 0 8 8.5 L 8 5.5 A 0.50005 0.50005 0 0 0 7.4921875 4.9921875 z" font-weight="400" font-family="sans-serif" white-space="normal" overflow="visible"/>
</svg>
