<?xml version="1.0" encoding="UTF-8" standalone="no"?>
<!DOCTYPE svg PUBLIC "-//W3C//DTD SVG 20010904//EN"
              "http://www.w3.org/TR/2001/REC-SVG-20010904/DTD/svg10.dtd">

<svg xmlns="http://www.w3.org/2000/svg"
     width="4.60359in" height="4.60359in"
     viewBox="0 0 442 442">
  <path id="Base form"
        fill="none" stroke="black" stroke-width="8"
        d="M 230.00,200.00
           C 230.44,203.75 230.00,215.81 232.00,220.00
             240.00,236.63 250.00,236.63 258.13,220.00
             260.00,215.91 259.88,201.44 260.00,200.00
             313.34,199.99 410.10,199.94 410.04,200.00
             410.04,220.00 410.04,239.91 410.00,239.96
             410.04,240.04 309.99,240.00 310.00,240.00
             290.01,240.13 270.00,260.08 270.00,280.00
             265.63,362.75 190.00,360.00 190.00,360.00
             190.00,360.00 114.13,362.13 110.00,280.00
             110.00,280.00 108.44,203.75 190.00,200.00
             189.99,200.02 219.72,200.00 230.00,200.00 Z
           M 348.18,292.55M 393.25,74.25M 353.50,267.25M 329.88,277.13M 332.25,277.00" />
</svg>
